<?xml version="1.0" standalone="no"?><!DOCTYPE svg PUBLIC "-//W3C//DTD SVG 1.1//EN" "http://www.w3.org/Graphics/SVG/1.1/DTD/svg11.dtd"><svg t="1637375219376" class="icon" viewBox="0 0 1024 1024" version="1.1" xmlns="http://www.w3.org/2000/svg" p-id="7511" xmlns:xlink="http://www.w3.org/1999/xlink" width="200" height="200"><defs><style type="text/css"></style></defs><path d="M897.225591 413.557522c-3.382917 4.833763-8.778793 7.419073-14.260675 7.419073-3.44435 0-6.922489-1.01979-9.957285-3.145376L511.991809 165.120962 150.977011 417.831219c-7.864463 5.507479-18.71048 3.594861-24.21796-4.273697-5.508503-7.867535-3.594861-18.711504 4.273697-24.21796l370.987442-259.691107c5.986657-4.191787 13.62689-4.191787 19.613547 0l165.916521 116.372759v-82.563041c0-9.604044 7.802006-17.389668 17.406051-17.389669s17.406051 7.785624 17.40605 17.389669v106.908986l170.275202 118.972403c7.868559 5.506455 10.096533 16.350425 4.58803 24.21796z m-130.32422-28.666742c-9.604044 0-16.894108 7.785624-16.894108 17.389669v279.540147c0 26.279041-9.845681 50.792903-28.457869 69.403043-18.567136 18.566113-42.908986 28.583807-69.277104 28.583807H364.756075c-26.368119 0-51.365255-10.017694-69.932391-28.585855-18.613211-18.609116-29.114179-43.122978-29.114179-69.402019v-274.902971c0-9.604044-8.313949-17.389668-17.917994-17.389668s-17.917993 7.785624-17.917993 17.389668v274.902971c0 35.569776 14.647703 68.833763 39.829139 94.012127 25.136385 25.136385 59.396612 38.786824 95.053418 38.786824h287.515191c35.65783 0 68.237861-13.651463 93.374246-38.7858 25.181436-25.179388 38.149967-58.444398 38.149967-94.013151V402.281472c0-9.604044-7.290064-17.390692-16.894108-17.390692zM349.635337 528.543939c-0.046075-0.520134-0.991121-1.041291-0.991121-1.563473v-13.914601c0-0.536516 0.953237-1.073032 1.002384-1.6075 4.820452-51.934535 45.075528-78.743949 79.818004-81.676357 4.930008-0.418769 9.852848-0.631737 14.342586-0.631737 30.788232 0 49.480282 10.046363 64.688051 23.224791 15.205721-13.179452 33.88958-23.224791 64.677812-23.224791 4.489737 0 9.386981 0.212968 14.328251 0.632761 34.728142 2.931384 73.878446 29.739773 78.711184 81.672261 0.05017 0.535492-0.163822 1.073032-0.163821 1.610572v13.914601c0 0.522182 0.222183 1.044363 0.176108 1.563473-4.774377 52.867295-53.570704 106.713424-149.01627 164.614139-2.771658 1.680196-5.734782 2.52183-8.858656 2.52183-3.123874 0-6.426928-0.839586-9.197562-2.52183-95.443518-57.89662-144.740525-111.742749-149.51695-164.614139z m32.797095-2.395892c6.143312 38.875902 46.580639 83.166109 124.400019 131.724895 77.822452-48.561857 120.308573-92.853088 124.404115-131.724895v-12.23031c-4.095541-31.517238-26.522725-47.739677-47.125346-49.478234-3.974723-0.338906-7.838866-0.509895-11.348745-0.509895-24.28656 0-35.099813 7.26549-51.960133 24.642872-3.275409 3.374726-7.719071 5.280177-12.422801 5.280177-4.702705 0-9.214968-1.904427-12.489353-5.279153-16.862367-17.378406-27.911114-24.643896-52.197674-24.643896-3.509879 0-8.505415 0.170989-12.468875 0.507847-20.615931 1.738557-42.646872 17.963044-48.790184 49.478234v12.232358z" fill="#d81e06" p-id="7512"></path></svg>